PathFileType	4	(X/Y/Z)	 2.8Hzhigh3min.trc
DataRate	CameraRate	NumFrames	NumMarkers	Units	OrigDataRate	OrigDataStartFrame	OrigNumFrames
200	200	11	35	m	200	251	1000
Frame#	Time	C7			LSH			RSH			MAN			RASI			LASI			HIPR			HIPL			RPSI			LPSI			COX			RTHI1			RTHI2			RTHI3			RTHI4			RSHA1			RSHA2			RSHA3			RSHA4			RHEEL			RMET5			RMET1			RTOE			LTHI1			LTHI2			LTHI3			LTHI4			LSHA1			LSHA2			LSHA3			LSHA4			LHEEL			LMET5			LMET1			LTOE			
		X1	Y1	Z1	X2	Y2	Z2	X3	Y3	Z3	X4	Y4	Z4	X5	Y5	Z5	X6	Y6	Z6	X7	Y7	Z7	X8	Y8	Z8	X9	Y9	Z9	X10	Y10	Z10	X11	Y11	Z11	X12	Y12	Z12	X13	Y13	Z13	X14	Y14	Z14	X15	Y15	Z15	X16	Y16	Z16	X17	Y17	Z17	X18	Y18	Z18	X19	Y19	Z19	X20	Y20	Z20	X21	Y21	Z21	X22	Y22	Z22	X23	Y23	Z23	X24	Y24	Z24	X25	Y25	Z25	X26	Y26	Z26	X27	Y27	Z27	X28	Y28	Z28	X29	Y29	Z29	X30	Y30	Z30	X31	Y31	Z31	X32	Y32	Z32	X33	Y33	Z33	X34	Y34	Z34	X35	Y35	Z35	
251	1.2550	-0.308777	1.422044	-0.576141	-0.272728	1.391730	-0.749042	-0.277483	1.394077	-0.400752	-0.196266	1.379643	-0.574606	-0.181061	0.989684	-0.481915	-0.169257	0.995581	-0.658154	-0.247438	1.036523	-0.441322	-0.230131	1.042368	-0.699912	-0.320792	1.024196	-0.517062	-0.314500	1.025553	-0.627321	-0.323049	1.036617	-0.574955	-0.271447	0.820008	-0.403927	-0.258314	0.761686	-0.397837	-0.195017	0.770869	-0.408265	-0.199657	0.831800	-0.414909	-0.288676	0.376211	-0.385892	-0.307062	0.336733	-0.386018	-0.252172	0.318870	-0.405617	-0.239405	0.357277	-0.408279	-0.392872	0.142343	-0.444620	-0.268516	0.040601	-0.390184	-0.240764	0.038016	-0.458448	-0.219876	0.026395	-0.450176	-0.243271	0.785526	-0.748125	-0.229425	0.725550	-0.745696	-0.168881	0.734210	-0.723434	-0.175232	0.793594	-0.724249	-0.318647	0.348305	-0.742679	-0.332795	0.310283	-0.739690	-0.271798	0.295022	-0.737462	-0.265524	0.338422	-0.741535	-0.388235	0.147382	-0.688069	-0.270758	0.035813	-0.743088	-0.241377	0.033420	-0.674606	-0.223350	0.023768	-0.682233	
252	1.2600	-0.308472	1.416972	-0.576316	-0.272198	1.387119	-0.748892	-0.277559	1.389446	-0.400874	-0.195921	1.374690	-0.574491	-0.181401	0.984873	-0.481713	-0.169083	0.990673	-0.657990	-0.247974	1.031727	-0.441446	-0.229727	1.037520	-0.699828	-0.321144	1.019287	-0.517328	-0.314501	1.020629	-0.627630	-0.323190	1.031683	-0.575283	-0.270732	0.814780	-0.404009	-0.257320	0.756487	-0.398101	-0.194113	0.765963	-0.408876	-0.199060	0.826886	-0.415383	-0.287283	0.371531	-0.386180	-0.306058	0.332268	-0.386317	-0.251379	0.313923	-0.406270	-0.238299	0.352227	-0.408885	-0.394840	0.138377	-0.445301	-0.269625	0.038053	-0.390118	-0.241792	0.036020	-0.459352	-0.220269	0.025629	-0.450979	-0.242603	0.780330	-0.748137	-0.228490	0.720426	-0.745636	-0.168023	0.729373	-0.723374	-0.174598	0.788729	-0.724275	-0.318311	0.344084	-0.742334	-0.333004	0.306296	-0.739403	-0.272245	0.290202	-0.736906	-0.265363	0.333500	-0.740993	-0.391781	0.143418	-0.688103	-0.272150	0.034314	-0.743245	-0.242378	0.032421	-0.674193	-0.223878	0.023351	-0.681718	
253	1.2650	-0.308166	1.411738	-0.576492	-0.271668	1.382396	-0.748703	-0.277651	1.384718	-0.401011	-0.195541	1.369562	-0.574354	-0.181716	0.979910	-0.481487	-0.168962	0.985605	-0.657858	-0.248551	1.026720	-0.441541	-0.229343	1.032486	-0.699837	-0.321521	1.014169	-0.517592	-0.314553	1.015508	-0.627964	-0.323363	1.026551	-0.575621	-0.270022	0.809352	-0.404127	-0.256307	0.751103	-0.398398	-0.193200	0.760903	-0.409500	-0.198476	0.821803	-0.415886	-0.286027	0.366814	-0.386473	-0.305216	0.327804	-0.386633	-0.250796	0.308893	-0.406932	-0.237352	0.347092	-0.409468	-0.397330	0.134616	-0.445970	-0.271088	0.036072	-0.389784	-0.242851	0.034586	-0.459994	-0.220681	0.025157	-0.451523	-0.241929	0.774862	-0.748147	-0.227520	0.715037	-0.745549	-0.167126	0.724301	-0.723314	-0.173962	0.783622	-0.724318	-0.318050	0.339885	-0.742080	-0.333395	0.302407	-0.739216	-0.272948	0.285295	-0.736240	-0.265317	0.328469	-0.740357	-0.395617	0.139592	-0.688279	-0.273530	0.033248	-0.743500	-0.243340	0.031868	-0.673931	-0.224341	0.023154	-0.681362	
254	1.2700	-0.307866	1.406399	-0.576673	-0.271153	1.377587	-0.748490	-0.277758	1.379930	-0.401150	-0.195174	1.364286	-0.574177	-0.181982	0.974832	-0.481246	-0.168888	0.980427	-0.657775	-0.249159	1.021505	-0.441587	-0.229008	1.027282	-0.699960	-0.321929	1.008857	-0.517836	-0.314675	1.010206	-0.628314	-0.323556	1.021246	-0.575958	-0.269335	0.803748	-0.404267	-0.255288	0.745562	-0.398709	-0.192278	0.755727	-0.410104	-0.197925	0.816598	-0.416386	-0.284957	0.362165	-0.386813	-0.304569	0.323428	-0.387003	-0.250463	0.303885	-0.407615	-0.236607	0.341960	-0.410051	-0.400228	0.131072	-0.446590	-0.272663	0.034682	-0.389327	-0.243804	0.033670	-0.460351	-0.221083	0.024870	-0.451853	-0.241244	0.769140	-0.748150	-0.226513	0.709402	-0.745434	-0.166176	0.719024	-0.723252	-0.173311	0.778298	-0.724377	-0.317783	0.335795	-0.741899	-0.333865	0.298671	-0.739125	-0.273794	0.280413	-0.735511	-0.265310	0.323444	-0.739648	-0.399435	0.136016	-0.688574	-0.274989	0.032446	-0.743917	-0.244239	0.031583	-0.673820	-0.224767	0.023043	-0.681167	
255	1.2750	-0.307576	1.401038	-0.576859	-0.270674	1.372728	-0.748275	-0.277894	1.375112	-0.401277	-0.194838	1.358890	-0.573951	-0.182178	0.969692	-0.480999	-0.168846	0.975194	-0.657762	-0.249786	1.016103	-0.441568	-0.228734	1.021966	-0.700224	-0.322379	1.003388	-0.518044	-0.314876	1.004764	-0.628687	-0.323776	1.015785	-0.576289	-0.268688	0.798032	-0.404428	-0.254262	0.739925	-0.399005	-0.191357	0.750504	-0.410631	-0.197416	0.811335	-0.416838	-0.284086	0.357675	-0.387234	-0.304113	0.319224	-0.387450	-0.250384	0.299003	-0.408341	-0.236066	0.336924	-0.410649	-0.403216	0.127727	-0.447027	-0.274177	0.033743	-0.388917	-0.244634	0.033111	-0.460566	-0.221436	0.024644	-0.452093	-0.240528	0.763218	-0.748159	-0.225453	0.703574	-0.745295	-0.165160	0.713596	-0.723180	-0.172634	0.772814	-0.724448	-0.317413	0.331884	-0.741813	-0.334255	0.295122	-0.739156	-0.274608	0.275660	-0.734776	-0.265227	0.318539	-0.738915	-0.403005	0.132677	-0.688998	-0.276394	0.031819	-0.744455	-0.245061	0.031429	-0.673782	-0.225154	0.022976	-0.681042	
256	1.2800	-0.307307	1.395734	-0.577048	-0.270252	1.367858	-0.748083	-0.278066	1.370316	-0.401367	-0.194431	1.353467	-0.573730	-0.182290	0.964547	-0.480749	-0.168816	0.969965	-0.657837	-0.250419	1.010548	-0.441461	-0.228552	1.016563	-0.700646	-0.322882	0.997806	-0.518201	-0.315181	0.999218	-0.629069	-0.324038	1.010222	-0.576599	-0.268096	0.792281	-0.404567	-0.253231	0.734279	-0.399268	-0.190430	0.745339	-0.411045	-0.196967	0.806122	-0.417190	-0.283384	0.353441	-0.387731	-0.303806	0.315262	-0.387969	-0.250498	0.294348	-0.409128	-0.235692	0.332119	-0.411272	-0.406078	0.124585	-0.447333	-0.275538	0.033075	-0.388534	-0.245294	0.032796	-0.460816	-0.221667	0.024468	-0.452312	-0.239753	0.757236	-0.748205	-0.224321	0.697697	-0.745148	-0.164083	0.708147	-0.723069	-0.171912	0.767310	-0.724522	-0.316844	0.328172	-0.741853	-0.334402	0.291746	-0.739352	-0.275190	0.271144	-0.734079	-0.264959	0.313886	-0.738195	-0.406159	0.129535	-0.689551	-0.277572	0.031257	-0.744969	-0.245800	0.031306	-0.673692	-0.225483	0.022915	-0.680914	
257	1.2850	-0.307069	1.390577	-0.577240	-0.269908	1.363026	-0.747942	-0.278276	1.365602	-0.401390	-0.193998	1.348099	-0.573505	-0.182304	0.959470	-0.480497	-0.168769	0.964812	-0.658019	-0.251041	1.004891	-0.441251	-0.228542	1.011111	-0.701210	-0.323456	0.992160	-0.518291	-0.315598	0.993643	-0.629452	-0.324344	1.004633	-0.576872	-0.267569	0.786624	-0.404664	-0.252204	0.728756	-0.399476	-0.189513	0.740365	-0.411319	-0.196584	0.801086	-0.417398	-0.282777	0.349510	-0.388306	-0.303587	0.311591	-0.388545	-0.250690	0.290017	-0.409939	-0.235409	0.327625	-0.411937	-0.408673	0.121616	-0.447538	-0.276634	0.032571	-0.388198	-0.245768	0.032602	-0.461089	-0.221746	0.024325	-0.452529	-0.238889	0.751416	-0.748311	-0.223112	0.691975	-0.745011	-0.162966	0.702856	-0.722888	-0.171144	0.761977	-0.724568	-0.316025	0.324655	-0.742031	-0.334188	0.288516	-0.739702	-0.275384	0.266959	-0.733448	-0.264426	0.309577	-0.737515	-0.408826	0.126588	-0.690221	-0.278410	0.030702	-0.745389	-0.246379	0.031193	-0.673520	-0.225680	0.022854	-0.680738	
258	1.2900	-0.306873	1.385665	-0.577432	-0.269659	1.358296	-0.747878	-0.278522	1.361030	-0.401344	-0.193534	1.342895	-0.573288	-0.182217	0.954538	-0.480240	-0.168682	0.959818	-0.658319	-0.251627	0.999191	-0.440932	-0.228711	1.005673	-0.701922	-0.324107	0.986533	-0.518300	-0.316137	0.988129	-0.629812	-0.324697	0.999128	-0.577095	-0.267120	0.781225	-0.404725	-0.251210	0.723499	-0.399626	-0.188630	0.735704	-0.411459	-0.196275	0.796362	-0.417444	-0.282190	0.345921	-0.388911	-0.303387	0.308234	-0.389159	-0.250861	0.286072	-0.410752	-0.235139	0.323502	-0.412646	-0.410940	0.118814	-0.447678	-0.277444	0.032130	-0.387953	-0.246089	0.032413	-0.461383	-0.221733	0.024209	-0.452749	-0.237941	0.745983	-0.748488	-0.221842	0.686641	-0.744912	-0.161830	0.697935	-0.722632	-0.170335	0.757023	-0.724563	-0.314964	0.321342	-0.742310	-0.333584	0.285413	-0.740178	-0.275147	0.263149	-0.732889	-0.263617	0.305671	-0.736883	-0.411022	0.123869	-0.691015	-0.278884	0.030198	-0.745752	-0.246742	0.031093	-0.673303	-0.225700	0.022795	-0.680519	
259	1.2950	-0.306722	1.381101	-0.577618	-0.269511	1.353743	-0.747910	-0.278827	1.356652	-0.401219	-0.193002	1.337984	-0.573103	-0.182024	0.949860	-0.479975	-0.168539	0.955078	-0.658740	-0.252187	0.993556	-0.440508	-0.229070	1.000328	-0.702768	-0.324824	0.981050	-0.518222	-0.316777	0.982821	-0.630123	-0.325071	0.993887	-0.577244	-0.266744	0.776257	-0.404747	-0.250284	0.718679	-0.399732	-0.187821	0.731486	-0.411499	-0.196032	0.792078	-0.417346	-0.281568	0.342626	-0.389506	-0.303154	0.305198	-0.389778	-0.250944	0.282525	-0.411578	-0.234819	0.319784	-0.413392	-0.412849	0.116277	-0.447817	-0.278071	0.031705	-0.387751	-0.246338	0.032228	-0.461738	-0.221642	0.024119	-0.452978	-0.236926	0.741171	-0.748740	-0.220546	0.681920	-0.744865	-0.160712	0.693589	-0.722307	-0.169511	0.752649	-0.724493	-0.313738	0.318262	-0.742662	-0.332680	0.282491	-0.740721	-0.274566	0.259733	-0.732380	-0.262606	0.302182	-0.736296	-0.412806	0.121419	-0.691883	-0.279058	0.029785	-0.746046	-0.246955	0.030991	-0.673064	-0.225623	0.022736	-0.680275	
260	1.3000	-0.306618	1.376970	-0.577786	-0.269453	1.349440	-0.748044	-0.279174	1.352553	-0.401021	-0.192418	1.333482	-0.572962	-0.181737	0.945540	-0.479700	-0.168330	0.950708	-0.659276	-0.252705	0.988101	-0.439993	-0.229639	0.995153	-0.703711	-0.325555	0.975887	-0.518055	-0.317475	0.977908	-0.630342	-0.325412	0.989111	-0.577287	-0.266442	0.771869	-0.404712	-0.249473	0.714439	-0.399839	-0.187120	0.727806	-0.411497	-0.195846	0.788340	-0.417145	-0.280914	0.339587	-0.390081	-0.302866	0.302484	-0.390380	-0.250912	0.279383	-0.412419	-0.234440	0.316500	-0.414172	-0.414483	0.114061	-0.448051	-0.278565	0.031339	-0.387557	-0.246520	0.032081	-0.462104	-0.221492	0.024059	-0.453187	-0.235883	0.737175	-0.749039	-0.219275	0.678007	-0.744875	-0.159650	0.689998	-0.721927	-0.168700	0.749034	-0.724351	-0.312469	0.315478	-0.743028	-0.331645	0.279829	-0.741264	-0.273810	0.256750	-0.731896	-0.261529	0.299131	-0.735754	-0.414234	0.119309	-0.692734	-0.279075	0.029436	-0.746277	-0.247100	0.030898	-0.672826	-0.225519	0.022686	-0.680042	
261	1.3050	-0.306556	1.373361	-0.577929	-0.269466	1.345480	-0.748269	-0.279546	1.348808	-0.400764	-0.191857	1.329472	-0.572841	-0.181365	0.941686	-0.479419	-0.168055	0.946846	-0.659908	-0.253178	0.982985	-0.439419	-0.230402	0.990296	-0.704707	-0.326224	0.971258	-0.517803	-0.318156	0.973607	-0.630436	-0.325677	0.984994	-0.577205	-0.266213	0.768187	-0.404712	-0.248826	0.710879	-0.399980	-0.186570	0.724719	-0.411493	-0.195701	0.785205	-0.416903	-0.280275	0.336866	-0.390677	-0.302537	0.300098	-0.390967	-0.250773	0.276668	-0.413264	-0.234027	0.313655	-0.414970	-0.415851	0.112131	-0.448295	-0.278928	0.031056	-0.387429	-0.246638	0.031956	-0.462410	-0.221327	0.024012	-0.453377	-0.234869	0.734049	-0.749338	-0.218076	0.674946	-0.744934	-0.158672	0.687199	-0.721540	-0.167934	0.746214	-0.724147	-0.311291	0.313078	-0.743359	-0.330656	0.277536	-0.741733	-0.273069	0.254213	-0.731450	-0.260524	0.296529	-0.735278	-0.415356	0.117586	-0.693485	-0.279065	0.029150	-0.746494	-0.247220	0.030817	-0.672625	-0.225432	0.022651	-0.679850	
